<svg viewBox="0 0 43 24" xmlns="http://www.w3.org/2000/svg">
  <defs></defs>
  <path d="M 42.994 12.403 C 42.779 19.027 37.254 24.216 30.65 23.993 C 24.049 23.771 18.871 18.22 19.085 11.597 C 19.298 4.973 24.824 -0.216 31.425 0.007 C 38.03 0.229 43.208 5.78 42.994 12.403 Z M 29.276 17.216 L 37.531 8.958 L 36.19 7.646 L 29.276 14.56 L 25.776 11.057 L 24.461 12.371 L 29.276 17.216 Z M 28.338 19.953 C 29.758 20.566 40.151 13.688 40.151 12.092 C 40.151 10.477 32.611 3.216 30.997 3.216 C 29.402 3.216 28.641 2.22 27.22 2.833 C 25.8 3.444 21.952 10.012 21.952 11.626 C 21.952 13.222 26.918 19.341 28.338 19.953 Z M 23.981 18.92 C 22.046 16.987 21.078 14.648 21.078 11.904 C 21.078 9.143 22.046 6.799 23.981 4.873 C 25.915 2.949 28.252 1.985 30.997 1.985 C 33.758 1.985 36.103 2.949 38.03 4.873 C 39.954 6.799 40.917 9.143 40.917 11.904 C 40.917 14.648 39.954 16.987 38.03 18.92 C 36.103 20.856 33.758 21.824 30.997 21.824 C 28.252 21.824 25.915 20.856 23.981 18.92 Z" style=""></path>
  <path d="M 10.234 24 L 10.234 16.5 L 12.233 16.5 L 12.233 19.267 L 19.105 19.267 C 19.534 19.977 20.024 20.646 20.568 21.267 L 12.233 21.267 L 12.233 24 Z M 0 21.267 L 0 19.267 L 8.233 19.267 L 8.233 21.267 Z M 6.233 15.733 L 6.233 13 L 0 13 L 0 11.001 L 6.233 11.001 L 6.233 8.2 L 8.233 8.2 L 8.233 15.733 Z M 10.234 13 L 10.234 11.001 L 17.113 11.001 C 17.101 11.176 17.092 11.352 17.086 11.529 C 17.07 12.025 17.08 12.516 17.114 13 Z M 24 13 L 23.94 13 L 23.379 12.435 L 24 11.814 Z M 15.768 7.5 L 15.768 0 L 17.767 0 L 17.767 2.733 L 20.547 2.733 C 20.004 3.353 19.515 4.022 19.087 4.733 L 17.767 4.733 L 17.767 7.5 Z M 0 4.733 L 0 2.733 L 13.767 2.733 L 13.767 4.733 Z" style=""></path>
</svg>