<svg viewBox="0 0 43 24" xmlns="http://www.w3.org/2000/svg">
  <defs></defs>
  <path d="M 10.233 24 L 10.233 16.501 L 12.233 16.501 L 12.233 19.267 L 24 19.267 L 24 21.267 L 12.233 21.267 L 12.233 24 L 10.233 24 Z M 0 21.267 L 0 19.267 L 8.233 19.267 L 8.233 21.267 L 0 21.267 Z M 6.233 15.734 L 6.233 13 L 0 13 L 0 11 L 6.233 11 L 6.233 8.2 L 8.233 8.2 L 8.233 15.734 L 6.233 15.734 Z M 10.233 13 L 10.233 11 L 24 11 L 24 13 L 10.233 13 Z M 15.767 7.499 L 15.767 0 L 17.766 0 L 17.766 2.733 L 24 2.733 L 24 4.733 L 17.766 4.733 L 17.766 7.499 L 15.767 7.499 Z M 0 4.733 L 0 2.733 L 13.767 2.733 L 13.767 4.733 L 0 4.733 Z" style=""></path>
</svg>