<svg viewBox="0 0 600 600" xmlns="http://www.w3.org/2000/svg">
  <defs></defs>
  <path d="M 138.297 455.029 C 136.86 451.742 137.168 448.454 139.222 445.167 L 180.519 392.159 C 182.163 389.693 184.424 388.46 187.3 388.46 C 190.176 388.46 192.642 389.693 194.697 392.159 L 237.843 448.865 L 305.645 363.19 C 307.288 360.723 309.548 359.491 312.425 359.491 C 315.302 359.491 317.766 360.723 319.821 363.19 L 381.459 445.167 C 383.925 448.454 384.334 451.742 382.692 455.029 C 381.049 458.316 378.172 459.96 374.062 459.96 L 146.002 459.96 C 142.305 459.96 139.737 458.316 138.297 455.029 Z M 84.981 551.184 C 75.119 551.184 66.695 547.692 59.71 540.705 C 52.725 533.72 49.231 525.296 49.231 515.434 L 49.231 167.798 C 49.231 157.935 52.725 149.512 59.71 142.525 C 66.695 135.54 75.119 132.048 84.981 132.048 L 308.799 132.048 L 308.799 159.785 L 84.981 159.785 C 82.926 159.785 81.078 160.607 79.434 162.251 C 77.79 163.893 76.968 165.744 76.968 167.798 L 76.968 515.434 C 76.968 517.489 77.79 519.338 79.434 520.982 C 81.078 522.625 82.926 523.448 84.981 523.448 L 432.618 523.448 C 434.673 523.448 436.522 522.625 438.166 520.982 C 439.81 519.338 440.632 517.489 440.632 515.434 L 440.632 291.616 L 468.368 291.616 L 468.368 515.434 C 468.368 525.296 464.875 533.72 457.89 540.705 C 450.905 547.692 442.48 551.184 432.618 551.184 L 84.981 551.184 Z" style="stroke: rgb(0, 0, 0); stroke-linecap: round; stroke-linejoin: round; stroke-width: 10px;"></path>
  <path d="M 439.463 160.122 L 356.392 160.122 L 356.392 131.887 L 439.463 131.887 L 439.463 48.816 L 467.699 48.816 L 467.699 131.887 L 550.768 131.887 L 550.768 160.122 L 467.699 160.122 L 467.699 243.194 L 439.463 243.194 L 439.463 160.122 Z" style="stroke: rgb(0, 0, 0); stroke-linecap: round; stroke-linejoin: round; stroke-width: 10px;"></path>
</svg>