<svg viewBox="0 0 500 500" xmlns="http://www.w3.org/2000/svg">
  <defs></defs>
  <path d="M 368.421 434.211 C 362.724 434.211 358 432.343 354.276 428.619 C 350.553 424.895 348.684 420.172 348.684 414.474 L 348.684 322.369 L 256.579 322.369 C 250.882 322.369 246.158 320.501 242.434 316.777 C 238.711 313.053 236.842 308.329 236.842 302.632 C 236.842 296.935 238.711 292.211 242.434 288.487 C 246.158 284.764 250.882 282.895 256.579 282.895 L 348.684 282.895 L 348.684 190.79 C 348.684 185.093 350.553 180.369 354.276 176.645 C 358 172.922 362.724 171.053 368.421 171.053 C 374.118 171.053 378.842 172.922 382.566 176.645 C 386.289 180.369 388.158 185.093 388.158 190.79 L 388.158 282.895 L 480.263 282.895 C 485.961 282.895 490.684 284.764 494.408 288.487 C 498.132 292.211 500 296.935 500 302.632 C 500 308.329 498.132 313.053 494.408 316.777 C 490.684 320.501 485.961 322.369 480.263 322.369 L 388.158 322.369 L 388.158 414.474 C 388.158 420.172 386.289 424.895 382.566 428.619 C 378.842 432.343 374.118 434.211 368.421 434.211 Z M 19.737 322.369 C 14.039 322.369 9.316 320.501 5.592 316.777 C 1.868 313.053 0 308.329 0 302.632 C 0 296.935 1.868 292.211 5.592 288.487 C 9.316 284.764 14.039 282.895 19.737 282.895 L 177.632 282.895 C 183.329 282.895 188.053 284.764 191.776 288.487 C 195.5 292.211 197.368 296.935 197.368 302.632 C 197.368 308.329 195.5 313.053 191.776 316.777 C 188.053 320.501 183.329 322.369 177.632 322.369 L 19.737 322.369 Z M 19.737 213.816 C 14.039 213.816 9.316 211.948 5.592 208.224 C 1.868 204.501 0 199.777 0 194.079 C 0 188.382 1.868 183.658 5.592 179.935 C 9.316 176.211 14.039 174.343 19.737 174.343 L 289.474 174.343 C 295.171 174.343 299.895 176.211 303.618 179.935 C 307.342 183.658 309.211 188.382 309.211 194.079 C 309.211 199.777 307.342 204.501 303.618 208.224 C 299.895 211.948 295.171 213.816 289.474 213.816 L 19.737 213.816 Z M 19.737 105.264 C 14.039 105.264 9.316 103.395 5.592 99.672 C 1.868 95.948 0 91.224 0 85.527 C 0 79.829 1.868 75.106 5.592 71.382 C 9.316 67.658 14.039 65.79 19.737 65.79 L 289.474 65.79 C 295.171 65.79 299.895 67.658 303.618 71.382 C 307.342 75.106 309.211 79.829 309.211 85.527 C 309.211 91.224 307.342 95.948 303.618 99.672 C 299.895 103.395 295.171 105.264 289.474 105.264 L 19.737 105.264 Z" style=""></path>
</svg>