<svg viewBox="0 0 500 500" xmlns="http://www.w3.org/2000/svg">
  <defs></defs>
  <path d="M 380.412 300.787 L 417.821 337.545 C 419.772 339.497 420.748 341.826 420.748 344.539 C 420.748 347.252 419.772 349.581 417.821 351.533 C 415.869 353.485 413.592 354.461 410.989 354.461 C 408.387 354.461 406.11 353.485 404.158 351.533 L 363.822 311.847 C 362.735 310.761 361.981 309.622 361.545 308.432 C 361.109 307.241 360.894 305.992 360.894 304.691 L 360.894 249.066 C 360.894 246.249 361.818 243.913 363.659 242.072 C 365.5 240.231 367.836 239.307 370.653 239.307 C 373.47 239.307 375.806 240.231 377.647 242.072 C 379.488 243.913 380.412 246.249 380.412 249.066 L 380.412 300.787 Z M 371.304 422.447 C 355.039 422.447 339.75 419.357 325.437 413.176 C 311.124 406.996 298.601 398.59 287.866 387.966 C 277.131 377.342 268.674 364.87 262.493 350.557 C 256.313 336.244 253.222 320.956 253.222 304.691 C 253.222 288.426 256.313 273.248 262.493 259.15 C 268.674 245.052 277.131 232.749 287.866 222.229 C 298.601 211.709 311.124 203.414 325.437 197.344 C 339.75 191.274 355.039 188.236 371.304 188.236 C 388.655 188.236 405.082 192.029 420.586 199.621 C 436.089 207.214 449.485 217.623 460.759 230.849 L 460.759 206.127 C 460.759 203.31 461.683 200.974 463.524 199.133 C 465.365 197.292 467.701 196.368 470.518 196.368 C 473.335 196.368 475.671 197.292 477.512 199.133 C 479.353 200.974 480.277 203.31 480.277 206.127 L 480.277 254.27 C 480.277 257.087 479.353 259.423 477.512 261.264 C 475.671 263.105 473.335 264.029 470.518 264.029 L 422.049 264.029 C 419.232 264.029 416.897 263.105 415.056 261.264 C 413.214 259.423 412.291 257.087 412.291 254.27 C 412.291 251.453 413.214 249.118 415.056 247.277 C 416.897 245.435 419.232 244.512 422.049 244.512 L 446.446 244.512 C 436.902 233.452 425.68 224.558 412.778 217.838 C 399.877 211.117 386.052 207.754 371.304 207.754 C 344.194 207.754 320.994 217.024 301.691 235.566 C 282.388 254.108 272.74 276.826 272.74 303.715 C 272.74 331.254 282.284 354.675 301.366 373.978 C 320.447 393.281 343.764 402.929 371.304 402.929 C 396.462 402.929 417.821 394.797 435.386 378.532 C 452.952 362.268 463.576 341.989 467.265 317.703 C 467.701 315.1 468.892 312.875 470.843 311.034 C 472.795 309.193 475.072 308.38 477.674 308.594 C 480.713 308.809 483.042 310.006 484.668 312.173 C 486.295 314.339 486.893 316.941 486.457 319.98 C 482.339 349.256 469.705 373.653 448.561 393.171 C 427.417 412.688 401.666 422.447 371.304 422.447 Z" style="stroke-width: 15px;"></path>
  <path d="M 387.912 297.642 L 423.126 332.243 C 425.883 335.397 428.248 340.377 428.248 344.539 C 428.248 348.701 425.882 353.683 423.124 356.836 C 419.998 359.583 415.069 361.961 410.989 361.961 C 406.91 361.961 402.024 359.626 398.898 356.879 L 358.521 317.153 C 356.958 315.484 355.332 312.98 354.502 311.01 C 353.892 309.166 353.448 306.628 353.394 304.691 L 353.394 249.066 C 353.657 244.87 355.461 239.664 358.356 236.769 C 361.251 233.874 366.457 231.807 370.653 231.807 C 374.849 231.807 380.055 233.874 382.95 236.769 C 385.845 239.664 387.649 244.87 387.912 249.066 L 387.912 297.642 Z M 372.912 303.932 L 372.912 249.066 C 373.175 247.628 373.131 248.162 372.344 247.375 C 371.557 246.588 372.091 246.807 370.653 246.807 C 369.215 246.807 369.749 246.588 368.962 247.375 C 368.175 248.162 368.131 247.628 368.394 249.066 L 368.394 304.691 C 368.34 305.356 368.326 305.316 368.587 305.852 C 368.629 306.262 368.512 306.038 369.123 306.541 L 409.418 346.187 C 410.196 347.344 409.864 346.961 410.989 346.961 C 412.115 346.961 411.74 347.387 412.517 346.231 C 413.661 345.481 413.248 345.803 413.248 344.539 C 413.248 343.275 413.661 343.597 412.516 342.847 L 375.155 306.137 L 372.912 303.932 Z M 371.304 429.947 C 354.296 429.947 337.521 426.475 322.464 420.061 C 307.547 413.552 293.826 404.416 282.59 393.297 C 271.34 382.162 262.127 368.461 255.607 353.53 C 249.195 338.474 245.722 321.699 245.722 304.691 C 245.722 287.678 249.204 270.994 255.624 256.138 C 262.149 241.422 271.367 227.897 282.617 216.872 C 293.858 205.856 307.564 196.777 322.509 190.439 C 337.524 184.071 354.308 180.736 371.304 180.736 C 389.499 180.736 407.575 185.008 423.885 192.885 C 440.039 200.885 444.361 204.787 453.259 212.623 L 453.259 206.127 C 453.522 201.931 455.326 196.725 458.221 193.83 C 461.116 190.935 466.322 188.868 470.518 188.868 C 474.714 188.868 479.92 190.935 482.815 193.83 C 485.71 196.725 487.514 201.931 487.777 206.127 L 487.777 254.27 C 487.514 258.466 485.71 263.672 482.815 266.567 C 479.92 269.462 474.714 271.266 470.518 271.529 L 422.049 271.529 C 417.852 271.266 412.866 269.244 409.753 266.568 C 407.075 263.453 404.791 258.465 404.791 254.27 C 404.791 250.074 407.075 245.089 409.753 241.974 C 412.868 239.296 417.853 237.275 422.049 237.012 L 428.294 237.012 C 422.534 232.194 421.618 230.822 409.313 224.489 C 397.258 218.086 385.166 215.254 371.304 215.254 C 345.585 215.254 325.174 223.409 306.887 240.975 C 288.646 258.496 280.24 278.292 280.24 303.715 C 280.24 329.839 288.424 350.624 306.7 368.705 C 324.548 387.18 345.198 395.429 371.304 395.429 C 395.128 395.429 413.939 388.541 430.291 373.029 C 447.083 357.776 456.565 339.573 459.868 316.464 C 460.696 312.711 463.014 308.377 465.697 305.578 C 468.961 302.933 474.086 301.122 478.25 301.119 C 482.727 301.752 487.754 304.419 490.666 307.67 C 492.948 311.249 494.259 316.632 493.881 321.043 C 489.377 351.514 475.578 378.133 453.648 398.682 C 431.289 418.95 402.995 429.947 371.304 429.947 Z M 443.474 387.66 C 463.832 369.173 475.296 347.009 479.03 318.935 C 479.523 317.269 479.642 317.431 478.671 316.677 C 478.331 315.595 478.734 315.885 477.145 316.075 C 476.111 315.656 476.629 315.453 475.989 316.49 C 474.772 317.372 474.706 317.489 474.662 318.941 C 470.571 344.358 458.822 366.76 440.482 384.035 C 421.703 401.053 397.796 410.429 371.304 410.429 C 342.33 410.429 316.346 399.382 296.032 379.251 C 276.144 358.726 265.24 332.669 265.24 303.715 C 265.24 275.36 276.13 249.72 296.495 230.157 C 316.814 210.639 342.803 200.254 371.304 200.254 C 386.938 200.254 402.496 204.147 416.243 211.186 C 429.742 218.293 442.07 228.063 452.124 239.612 L 462.919 252.012 L 422.049 252.012 C 420.611 251.749 420.928 251.573 420.361 252.579 C 419.355 253.146 419.791 252.832 419.791 254.27 C 419.791 255.709 419.353 255.393 420.358 255.959 C 420.927 256.965 420.612 256.792 422.049 256.529 L 470.518 256.529 C 471.956 256.792 471.422 256.748 472.209 255.961 C 472.996 255.174 473.04 255.708 472.777 254.27 L 472.777 206.127 C 473.04 204.689 472.996 205.223 472.209 204.436 C 471.422 203.649 471.956 203.868 470.518 203.868 C 469.08 203.868 469.614 203.649 468.827 204.436 C 468.04 205.223 467.996 204.689 468.259 206.127 L 468.259 251.357 L 455.051 235.714 C 444.33 223.017 432.139 213.543 417.287 206.357 C 402.589 199.05 387.811 195.736 371.304 195.736 C 355.77 195.736 341.976 198.477 328.365 204.249 C 314.684 210.051 303.344 217.562 293.115 227.586 C 282.895 237.601 275.199 248.682 269.362 262.162 C 263.422 275.502 260.722 289.174 260.722 304.691 C 260.722 320.213 263.431 334.014 269.379 347.584 C 275.221 361.279 282.922 372.522 293.142 382.635 C 303.376 392.764 314.701 400.44 328.41 406.29 C 341.979 412.238 355.782 414.947 371.304 414.947 C 400.337 414.947 423.545 406.426 443.474 387.66 Z" style="fill: none;"></path>
  <path d="M 387.912 297.642 L 423.126 332.243 C 425.883 335.397 428.248 340.377 428.248 344.539 C 428.248 348.701 425.882 353.683 423.124 356.836 C 419.998 359.583 415.069 361.961 410.989 361.961 C 406.91 361.961 402.024 359.626 398.898 356.879 L 358.521 317.153 C 356.958 315.484 355.332 312.98 354.502 311.01 C 353.892 309.166 353.448 306.628 353.394 304.691 L 353.394 249.066 C 353.657 244.87 355.461 239.664 358.356 236.769 C 361.251 233.874 366.457 231.807 370.653 231.807 C 374.849 231.807 380.055 233.874 382.95 236.769 C 385.845 239.664 387.649 244.87 387.912 249.066 L 387.912 297.642 Z M 372.912 303.932 L 372.912 249.066 C 373.175 247.628 373.131 248.162 372.344 247.375 C 371.557 246.588 372.091 246.807 370.653 246.807 C 369.215 246.807 369.749 246.588 368.962 247.375 C 368.175 248.162 368.131 247.628 368.394 249.066 L 368.394 304.691 C 368.34 305.356 368.326 305.316 368.587 305.852 C 368.629 306.262 368.512 306.038 369.123 306.541 L 409.418 346.187 C 410.196 347.344 409.864 346.961 410.989 346.961 C 412.115 346.961 411.74 347.387 412.517 346.231 C 413.661 345.481 413.248 345.803 413.248 344.539 C 413.248 343.275 413.661 343.597 412.516 342.847 L 375.155 306.137 L 372.912 303.932 Z M 371.304 429.947 C 354.296 429.947 337.521 426.475 322.464 420.061 C 307.547 413.552 293.826 404.416 282.59 393.297 C 271.34 382.162 262.127 368.461 255.607 353.53 C 249.195 338.474 245.722 321.699 245.722 304.691 C 245.722 287.678 249.204 270.994 255.624 256.138 C 262.149 241.422 271.367 227.897 282.617 216.872 C 293.858 205.856 307.564 196.777 322.509 190.439 C 337.524 184.071 354.308 180.736 371.304 180.736 C 389.499 180.736 407.575 185.008 423.885 192.885 C 440.039 200.885 444.361 204.787 453.259 212.623 L 453.259 206.127 C 453.522 201.931 455.326 196.725 458.221 193.83 C 461.116 190.935 466.322 188.868 470.518 188.868 C 474.714 188.868 479.92 190.935 482.815 193.83 C 485.71 196.725 487.514 201.931 487.777 206.127 L 487.777 254.27 C 487.514 258.466 485.71 263.672 482.815 266.567 C 479.92 269.462 474.714 271.266 470.518 271.529 L 422.049 271.529 C 417.852 271.266 412.866 269.244 409.753 266.568 C 407.075 263.453 404.791 258.465 404.791 254.27 C 404.791 250.074 407.075 245.089 409.753 241.974 C 412.868 239.296 417.853 237.275 422.049 237.012 L 428.294 237.012 C 422.534 232.194 421.618 230.822 409.313 224.489 C 397.258 218.086 385.166 215.254 371.304 215.254 C 345.585 215.254 325.174 223.409 306.887 240.975 C 288.646 258.496 280.24 278.292 280.24 303.715 C 280.24 329.839 288.424 350.624 306.7 368.705 C 324.548 387.18 345.198 395.429 371.304 395.429 C 395.128 395.429 413.939 388.541 430.291 373.029 C 447.083 357.776 456.565 339.573 459.868 316.464 C 460.696 312.711 463.014 308.377 465.697 305.578 C 468.961 302.933 474.086 301.122 478.25 301.119 C 482.727 301.752 487.754 304.419 490.666 307.67 C 492.948 311.249 494.259 316.632 493.881 321.043 C 489.377 351.514 475.578 378.133 453.648 398.682 C 431.289 418.95 402.995 429.947 371.304 429.947 Z M 443.474 387.66 C 463.832 369.173 475.296 347.009 479.03 318.935 C 479.523 317.269 479.642 317.431 478.671 316.677 C 478.331 315.595 478.734 315.885 477.145 316.075 C 476.111 315.656 476.629 315.453 475.989 316.49 C 474.772 317.372 474.706 317.489 474.662 318.941 C 470.571 344.358 458.822 366.76 440.482 384.035 C 421.703 401.053 397.796 410.429 371.304 410.429 C 342.33 410.429 316.346 399.382 296.032 379.251 C 276.144 358.726 265.24 332.669 265.24 303.715 C 265.24 275.36 276.13 249.72 296.495 230.157 C 316.814 210.639 342.803 200.254 371.304 200.254 C 386.938 200.254 402.496 204.147 416.243 211.186 C 429.742 218.293 442.07 228.063 452.124 239.612 L 462.919 252.012 L 422.049 252.012 C 420.611 251.749 420.928 251.573 420.361 252.579 C 419.355 253.146 419.791 252.832 419.791 254.27 C 419.791 255.709 419.353 255.393 420.358 255.959 C 420.927 256.965 420.612 256.792 422.049 256.529 L 470.518 256.529 C 471.956 256.792 471.422 256.748 472.209 255.961 C 472.996 255.174 473.04 255.708 472.777 254.27 L 472.777 206.127 C 473.04 204.689 472.996 205.223 472.209 204.436 C 471.422 203.649 471.956 203.868 470.518 203.868 C 469.08 203.868 469.614 203.649 468.827 204.436 C 468.04 205.223 467.996 204.689 468.259 206.127 L 468.259 251.357 L 455.051 235.714 C 444.33 223.017 432.139 213.543 417.287 206.357 C 402.589 199.05 387.811 195.736 371.304 195.736 C 355.77 195.736 341.976 198.477 328.365 204.249 C 314.684 210.051 303.344 217.562 293.115 227.586 C 282.895 237.601 275.199 248.682 269.362 262.162 C 263.422 275.502 260.722 289.174 260.722 304.691 C 260.722 320.213 263.431 334.014 269.379 347.584 C 275.221 361.279 282.922 372.522 293.142 382.635 C 303.376 392.764 314.701 400.44 328.41 406.29 C 341.979 412.238 355.782 414.947 371.304 414.947 C 400.337 414.947 423.545 406.426 443.474 387.66 Z" style="fill: none;"></path>
  <path d="M 387.912 297.642 L 423.126 332.243 C 425.883 335.397 428.248 340.377 428.248 344.539 C 428.248 348.701 425.882 353.683 423.124 356.836 C 419.998 359.583 415.069 361.961 410.989 361.961 C 406.91 361.961 402.024 359.626 398.898 356.879 L 358.521 317.153 C 356.958 315.484 355.332 312.98 354.502 311.01 C 353.892 309.166 353.448 306.628 353.394 304.691 L 353.394 249.066 C 353.657 244.87 355.461 239.664 358.356 236.769 C 361.251 233.874 366.457 231.807 370.653 231.807 C 374.849 231.807 380.055 233.874 382.95 236.769 C 385.845 239.664 387.649 244.87 387.912 249.066 L 387.912 297.642 Z M 372.912 303.932 L 372.912 249.066 C 373.175 247.628 373.131 248.162 372.344 247.375 C 371.557 246.588 372.091 246.807 370.653 246.807 C 369.215 246.807 369.749 246.588 368.962 247.375 C 368.175 248.162 368.131 247.628 368.394 249.066 L 368.394 304.691 C 368.34 305.356 368.326 305.316 368.587 305.852 C 368.629 306.262 368.512 306.038 369.123 306.541 L 409.418 346.187 C 410.196 347.344 409.864 346.961 410.989 346.961 C 412.115 346.961 411.74 347.387 412.517 346.231 C 413.661 345.481 413.248 345.803 413.248 344.539 C 413.248 343.275 413.661 343.597 412.516 342.847 L 375.155 306.137 L 372.912 303.932 Z M 371.304 429.947 C 354.296 429.947 337.521 426.475 322.464 420.061 C 307.547 413.552 293.826 404.416 282.59 393.297 C 271.34 382.162 262.127 368.461 255.607 353.53 C 249.195 338.474 245.722 321.699 245.722 304.691 C 245.722 287.678 249.204 270.994 255.624 256.138 C 262.149 241.422 271.367 227.897 282.617 216.872 C 293.858 205.856 307.564 196.777 322.509 190.439 C 337.524 184.071 354.308 180.736 371.304 180.736 C 389.499 180.736 407.575 185.008 423.885 192.885 C 440.039 200.885 444.361 204.787 453.259 212.623 L 453.259 206.127 C 453.522 201.931 455.326 196.725 458.221 193.83 C 461.116 190.935 466.322 188.868 470.518 188.868 C 474.714 188.868 479.92 190.935 482.815 193.83 C 485.71 196.725 487.514 201.931 487.777 206.127 L 487.777 254.27 C 487.514 258.466 485.71 263.672 482.815 266.567 C 479.92 269.462 474.714 271.266 470.518 271.529 L 422.049 271.529 C 417.852 271.266 412.866 269.244 409.753 266.568 C 407.075 263.453 404.791 258.465 404.791 254.27 C 404.791 250.074 407.075 245.089 409.753 241.974 C 412.868 239.296 417.853 237.275 422.049 237.012 L 428.294 237.012 C 422.534 232.194 421.618 230.822 409.313 224.489 C 397.258 218.086 385.166 215.254 371.304 215.254 C 345.585 215.254 325.174 223.409 306.887 240.975 C 288.646 258.496 280.24 278.292 280.24 303.715 C 280.24 329.839 288.424 350.624 306.7 368.705 C 324.548 387.18 345.198 395.429 371.304 395.429 C 395.128 395.429 413.939 388.541 430.291 373.029 C 447.083 357.776 456.565 339.573 459.868 316.464 C 460.696 312.711 463.014 308.377 465.697 305.578 C 468.961 302.933 474.086 301.122 478.25 301.119 C 482.727 301.752 487.754 304.419 490.666 307.67 C 492.948 311.249 494.259 316.632 493.881 321.043 C 489.377 351.514 475.578 378.133 453.648 398.682 C 431.289 418.95 402.995 429.947 371.304 429.947 Z M 443.474 387.66 C 463.832 369.173 475.296 347.009 479.03 318.935 C 479.523 317.269 479.642 317.431 478.671 316.677 C 478.331 315.595 478.734 315.885 477.145 316.075 C 476.111 315.656 476.629 315.453 475.989 316.49 C 474.772 317.372 474.706 317.489 474.662 318.941 C 470.571 344.358 458.822 366.76 440.482 384.035 C 421.703 401.053 397.796 410.429 371.304 410.429 C 342.33 410.429 316.346 399.382 296.032 379.251 C 276.144 358.726 265.24 332.669 265.24 303.715 C 265.24 275.36 276.13 249.72 296.495 230.157 C 316.814 210.639 342.803 200.254 371.304 200.254 C 386.938 200.254 402.496 204.147 416.243 211.186 C 429.742 218.293 442.07 228.063 452.124 239.612 L 462.919 252.012 L 422.049 252.012 C 420.611 251.749 420.928 251.573 420.361 252.579 C 419.355 253.146 419.791 252.832 419.791 254.27 C 419.791 255.709 419.353 255.393 420.358 255.959 C 420.927 256.965 420.612 256.792 422.049 256.529 L 470.518 256.529 C 471.956 256.792 471.422 256.748 472.209 255.961 C 472.996 255.174 473.04 255.708 472.777 254.27 L 472.777 206.127 C 473.04 204.689 472.996 205.223 472.209 204.436 C 471.422 203.649 471.956 203.868 470.518 203.868 C 469.08 203.868 469.614 203.649 468.827 204.436 C 468.04 205.223 467.996 204.689 468.259 206.127 L 468.259 251.357 L 455.051 235.714 C 444.33 223.017 432.139 213.543 417.287 206.357 C 402.589 199.05 387.811 195.736 371.304 195.736 C 355.77 195.736 341.976 198.477 328.365 204.249 C 314.684 210.051 303.344 217.562 293.115 227.586 C 282.895 237.601 275.199 248.682 269.362 262.162 C 263.422 275.502 260.722 289.174 260.722 304.691 C 260.722 320.213 263.431 334.014 269.379 347.584 C 275.221 361.279 282.922 372.522 293.142 382.635 C 303.376 392.764 314.701 400.44 328.41 406.29 C 341.979 412.238 355.782 414.947 371.304 414.947 C 400.337 414.947 423.545 406.426 443.474 387.66 Z" style="fill: none;"></path>
  <path d="M 387.912 297.642 L 423.126 332.243 C 425.883 335.397 428.248 340.377 428.248 344.539 C 428.248 348.701 425.882 353.683 423.124 356.836 C 419.998 359.583 415.069 361.961 410.989 361.961 C 406.91 361.961 402.024 359.626 398.898 356.879 L 358.521 317.153 C 356.958 315.484 355.332 312.98 354.502 311.01 C 353.892 309.166 353.448 306.628 353.394 304.691 L 353.394 249.066 C 353.657 244.87 355.461 239.664 358.356 236.769 C 361.251 233.874 366.457 231.807 370.653 231.807 C 374.849 231.807 380.055 233.874 382.95 236.769 C 385.845 239.664 387.649 244.87 387.912 249.066 L 387.912 297.642 Z M 372.912 303.932 L 372.912 249.066 C 373.175 247.628 373.131 248.162 372.344 247.375 C 371.557 246.588 372.091 246.807 370.653 246.807 C 369.215 246.807 369.749 246.588 368.962 247.375 C 368.175 248.162 368.131 247.628 368.394 249.066 L 368.394 304.691 C 368.34 305.356 368.326 305.316 368.587 305.852 C 368.629 306.262 368.512 306.038 369.123 306.541 L 409.418 346.187 C 410.196 347.344 409.864 346.961 410.989 346.961 C 412.115 346.961 411.74 347.387 412.517 346.231 C 413.661 345.481 413.248 345.803 413.248 344.539 C 413.248 343.275 413.661 343.597 412.516 342.847 L 375.155 306.137 L 372.912 303.932 Z M 371.304 429.947 C 354.296 429.947 337.521 426.475 322.464 420.061 C 307.547 413.552 293.826 404.416 282.59 393.297 C 271.34 382.162 262.127 368.461 255.607 353.53 C 249.195 338.474 245.722 321.699 245.722 304.691 C 245.722 287.678 249.204 270.994 255.624 256.138 C 262.149 241.422 271.367 227.897 282.617 216.872 C 293.858 205.856 307.564 196.777 322.509 190.439 C 337.524 184.071 354.308 180.736 371.304 180.736 C 389.499 180.736 407.575 185.008 423.885 192.885 C 440.039 200.885 444.361 204.787 453.259 212.623 L 453.259 206.127 C 453.522 201.931 455.326 196.725 458.221 193.83 C 461.116 190.935 466.322 188.868 470.518 188.868 C 474.714 188.868 479.92 190.935 482.815 193.83 C 485.71 196.725 487.514 201.931 487.777 206.127 L 487.777 254.27 C 487.514 258.466 485.71 263.672 482.815 266.567 C 479.92 269.462 474.714 271.266 470.518 271.529 L 422.049 271.529 C 417.852 271.266 412.866 269.244 409.753 266.568 C 407.075 263.453 404.791 258.465 404.791 254.27 C 404.791 250.074 407.075 245.089 409.753 241.974 C 412.868 239.296 417.853 237.275 422.049 237.012 L 428.294 237.012 C 422.534 232.194 421.618 230.822 409.313 224.489 C 397.258 218.086 385.166 215.254 371.304 215.254 C 345.585 215.254 325.174 223.409 306.887 240.975 C 288.646 258.496 280.24 278.292 280.24 303.715 C 280.24 329.839 288.424 350.624 306.7 368.705 C 324.548 387.18 345.198 395.429 371.304 395.429 C 395.128 395.429 413.939 388.541 430.291 373.029 C 447.083 357.776 456.565 339.573 459.868 316.464 C 460.696 312.711 463.014 308.377 465.697 305.578 C 468.961 302.933 474.086 301.122 478.25 301.119 C 482.727 301.752 487.754 304.419 490.666 307.67 C 492.948 311.249 494.259 316.632 493.881 321.043 C 489.377 351.514 475.578 378.133 453.648 398.682 C 431.289 418.95 402.995 429.947 371.304 429.947 Z M 443.474 387.66 C 463.832 369.173 475.296 347.009 479.03 318.935 C 479.523 317.269 479.642 317.431 478.671 316.677 C 478.331 315.595 478.734 315.885 477.145 316.075 C 476.111 315.656 476.629 315.453 475.989 316.49 C 474.772 317.372 474.706 317.489 474.662 318.941 C 470.571 344.358 458.822 366.76 440.482 384.035 C 421.703 401.053 397.796 410.429 371.304 410.429 C 342.33 410.429 316.346 399.382 296.032 379.251 C 276.144 358.726 265.24 332.669 265.24 303.715 C 265.24 275.36 276.13 249.72 296.495 230.157 C 316.814 210.639 342.803 200.254 371.304 200.254 C 386.938 200.254 402.496 204.147 416.243 211.186 C 429.742 218.293 442.07 228.063 452.124 239.612 L 462.919 252.012 L 422.049 252.012 C 420.611 251.749 420.928 251.573 420.361 252.579 C 419.355 253.146 419.791 252.832 419.791 254.27 C 419.791 255.709 419.353 255.393 420.358 255.959 C 420.927 256.965 420.612 256.792 422.049 256.529 L 470.518 256.529 C 471.956 256.792 471.422 256.748 472.209 255.961 C 472.996 255.174 473.04 255.708 472.777 254.27 L 472.777 206.127 C 473.04 204.689 472.996 205.223 472.209 204.436 C 471.422 203.649 471.956 203.868 470.518 203.868 C 469.08 203.868 469.614 203.649 468.827 204.436 C 468.04 205.223 467.996 204.689 468.259 206.127 L 468.259 251.357 L 455.051 235.714 C 444.33 223.017 432.139 213.543 417.287 206.357 C 402.589 199.05 387.811 195.736 371.304 195.736 C 355.77 195.736 341.976 198.477 328.365 204.249 C 314.684 210.051 303.344 217.562 293.115 227.586 C 282.895 237.601 275.199 248.682 269.362 262.162 C 263.422 275.502 260.722 289.174 260.722 304.691 C 260.722 320.213 263.431 334.014 269.379 347.584 C 275.221 361.279 282.922 372.522 293.142 382.635 C 303.376 392.764 314.701 400.44 328.41 406.29 C 341.979 412.238 355.782 414.947 371.304 414.947 C 400.337 414.947 423.545 406.426 443.474 387.66 Z" style="fill: none;"></path>
  <path d="M 229.81 178.615 C 235.512 178.615 240.242 180.486 243.97 184.213 C 247.697 187.942 249.569 192.671 249.569 198.375 C 249.569 204.079 247.697 208.808 243.97 212.537 C 240.242 216.264 235.512 218.136 229.81 218.136 L 172.433 218.136 L 172.433 218.078 L 25.792 218.078 C 20.094 218.078 15.371 216.21 11.647 212.486 C 7.923 208.763 6.055 204.039 6.055 198.341 C 6.055 192.644 7.923 187.92 11.647 184.197 C 15.371 180.473 20.094 178.605 25.792 178.605 L 200 178.605 L 200 178.615 Z M 387.912 297.642 L 423.126 332.243 C 425.883 335.397 428.248 340.377 428.248 344.539 C 428.248 348.701 425.882 353.683 423.124 356.836 C 419.998 359.583 415.069 361.961 410.989 361.961 C 406.91 361.961 402.024 359.626 398.898 356.879 L 358.521 317.153 C 356.958 315.484 355.332 312.98 354.502 311.01 C 353.892 309.166 353.448 306.628 353.394 304.691 L 353.394 249.066 C 353.657 244.87 355.461 239.664 358.356 236.769 C 361.251 233.874 366.457 231.807 370.653 231.807 C 374.849 231.807 380.055 233.874 382.95 236.769 C 385.845 239.664 387.649 244.87 387.912 249.066 Z M 372.912 303.932 L 372.912 249.066 C 373.175 247.628 373.131 248.162 372.344 247.375 C 371.557 246.588 372.091 246.807 370.653 246.807 C 369.215 246.807 369.749 246.588 368.962 247.375 C 368.175 248.162 368.131 247.628 368.394 249.066 L 368.394 304.691 C 368.34 305.356 368.326 305.316 368.587 305.852 C 368.629 306.262 368.512 306.038 369.123 306.541 L 409.418 346.187 C 410.196 347.344 409.864 346.961 410.989 346.961 C 412.115 346.961 411.74 347.387 412.517 346.231 C 413.661 345.481 413.248 345.803 413.248 344.539 C 413.248 343.275 413.661 343.597 412.516 342.847 L 375.155 306.137 Z M 371.304 429.947 C 354.296 429.947 337.521 426.475 322.464 420.061 C 307.547 413.552 293.826 404.416 282.59 393.297 C 271.34 382.162 262.127 368.461 255.607 353.53 C 249.195 338.474 245.722 321.699 245.722 304.691 C 245.722 287.678 249.204 270.994 255.624 256.138 C 262.149 241.422 271.367 227.897 282.617 216.872 C 293.858 205.856 307.564 196.777 322.509 190.439 C 337.524 184.071 354.308 180.736 371.304 180.736 C 389.499 180.736 407.575 185.008 423.885 192.885 C 440.039 200.885 444.361 204.787 453.259 212.623 L 453.259 206.127 C 453.522 201.931 455.326 196.725 458.221 193.83 C 461.116 190.935 466.322 188.868 470.518 188.868 C 474.714 188.868 479.92 190.935 482.815 193.83 C 485.71 196.725 487.514 201.931 487.777 206.127 L 487.777 254.27 C 487.514 258.466 485.71 263.672 482.815 266.567 C 479.92 269.462 474.714 271.266 470.518 271.529 L 422.049 271.529 C 417.852 271.266 412.866 269.244 409.753 266.568 C 407.075 263.453 404.791 258.465 404.791 254.27 C 404.791 250.074 407.075 245.089 409.753 241.974 C 412.868 239.296 417.853 237.275 422.049 237.012 L 428.294 237.012 C 422.534 232.194 421.618 230.822 409.313 224.489 C 397.258 218.086 385.166 215.254 371.304 215.254 C 345.585 215.254 325.174 223.409 306.887 240.975 C 288.646 258.496 280.24 278.292 280.24 303.715 C 280.24 329.839 288.424 350.624 306.7 368.705 C 324.548 387.18 345.198 395.429 371.304 395.429 C 395.128 395.429 413.939 388.541 430.291 373.029 C 447.083 357.776 456.565 339.573 459.868 316.464 C 460.696 312.711 463.014 308.377 465.697 305.578 C 468.961 302.933 474.086 301.122 478.25 301.119 C 482.727 301.752 487.754 304.419 490.666 307.67 C 492.948 311.249 494.259 316.632 493.881 321.043 C 489.377 351.514 475.578 378.133 453.648 398.682 C 431.289 418.95 402.995 429.947 371.304 429.947 Z M 443.474 387.66 C 463.832 369.173 475.296 347.009 479.03 318.935 C 479.523 317.269 479.642 317.431 478.671 316.677 C 478.331 315.595 478.734 315.885 477.145 316.075 C 477.112 316.062 477.08 316.048 477.05 316.035 C 476.209 317.331 475.33 318.665 474.503 319.907 C 470.272 344.926 458.589 366.979 440.482 384.035 C 421.703 401.053 397.796 410.429 371.304 410.429 C 342.33 410.429 316.346 399.382 296.032 379.251 C 276.144 358.726 265.24 332.669 265.24 303.715 C 265.24 275.36 276.13 249.72 296.495 230.157 C 316.814 210.639 342.803 200.254 371.304 200.254 C 386.938 200.254 402.496 204.147 416.243 211.186 C 429.742 218.293 442.07 228.063 452.124 239.612 L 462.919 252.012 L 422.049 252.012 C 420.611 251.749 420.928 251.573 420.361 252.579 C 419.355 253.146 419.791 252.832 419.791 254.27 C 419.791 255.709 419.353 255.393 420.358 255.959 C 420.927 256.965 420.612 256.792 422.049 256.529 L 470.518 256.529 C 471.956 256.792 471.422 256.748 472.209 255.961 C 472.996 255.174 473.04 255.708 472.777 254.27 L 472.777 206.127 C 473.04 204.689 472.996 205.223 472.209 204.436 C 471.422 203.649 471.956 203.868 470.518 203.868 C 469.08 203.868 469.614 203.649 468.827 204.436 C 468.04 205.223 467.996 204.689 468.259 206.127 L 468.259 251.357 L 455.051 235.714 C 444.33 223.017 432.139 213.543 417.287 206.357 C 402.589 199.05 387.811 195.736 371.304 195.736 C 355.77 195.736 341.976 198.477 328.365 204.249 C 314.684 210.051 303.344 217.562 293.115 227.586 C 282.895 237.601 275.199 248.682 269.362 262.162 C 263.422 275.502 260.722 289.174 260.722 304.691 C 260.722 320.213 263.431 334.014 269.379 347.584 C 275.221 361.279 282.922 372.522 293.142 382.635 C 303.376 392.764 314.701 400.44 328.41 406.29 C 341.979 412.238 355.782 414.947 371.304 414.947 C 400.337 414.947 423.545 406.426 443.474 387.66 Z M 475.989 316.49 C 474.772 317.372 474.706 317.489 474.662 318.941 C 474.611 319.259 474.558 319.577 474.505 319.894 C 475.314 318.459 476.077 317.119 476.777 315.905 C 476.24 315.623 476.534 315.608 475.989 316.49 Z M 25.792 326.631 C 20.094 326.631 15.371 324.763 11.647 321.039 C 7.923 317.315 6.055 312.591 6.055 306.894 C 6.055 301.197 7.923 296.473 11.647 292.749 C 15.371 289.026 20.094 287.157 25.792 287.157 L 183.687 287.157 C 189.384 287.157 194.108 289.026 197.831 292.749 C 201.555 296.473 203.423 301.197 203.423 306.894 C 203.423 312.591 201.555 317.315 197.831 321.039 C 194.108 324.763 189.384 326.631 183.687 326.631 Z M 25.792 109.526 C 20.094 109.526 15.371 107.657 11.647 103.934 C 7.923 100.21 6.055 95.486 6.055 89.789 C 6.055 84.091 7.923 79.368 11.647 75.644 C 15.371 71.92 20.094 70.052 25.792 70.052 L 295.529 70.052 C 301.226 70.052 305.95 71.92 309.673 75.644 C 313.397 79.368 315.266 84.091 315.266 89.789 C 315.266 95.486 313.397 100.21 309.673 103.934 C 305.95 107.657 301.226 109.526 295.529 109.526 Z" style=""></path>
</svg>