<svg viewBox="0 0 530 510" xmlns="http://www.w3.org/2000/svg">
  <defs></defs>
  <path fill-rule="evenodd" d="M 278.45 38.508 C 273.078 27.626 257.941 26.642 251.205 36.736 C 250.825 37.303 250.482 37.894 250.181 38.508 L 185.926 168.761 L 42.201 189.654 C 30.192 191.399 24.573 205.487 32.086 215.017 C 32.51 215.552 32.966 216.061 33.457 216.537 L 137.458 317.911 L 112.907 461.071 C 110.851 473.03 122.513 482.729 133.898 478.53 C 134.541 478.294 135.17 478.015 135.776 477.694 L 264.326 410.101 L 392.9 477.694 C 403.642 483.336 416.465 475.231 415.977 463.105 C 415.951 462.429 415.88 461.758 415.766 461.09 L 391.218 317.911 L 495.216 216.537 C 503.917 208.076 500.196 193.37 488.517 190.065 C 487.847 189.877 487.165 189.732 486.475 189.632 L 342.747 168.761 L 278.45 38.508 Z" style="stroke: rgb(0, 0, 0); paint-order: stroke; stroke-linejoin: round; stroke-linecap: round; stroke-width: 50px; fill: rgb(192, 192, 192);"></path>
</svg>