<svg viewBox="0 0 500 500" xmlns="http://www.w3.org/2000/svg">
  <defs></defs>
  <line style="fill: rgb(216, 216, 216); stroke-width: 31px;" x1="18.949" y1="37.984" x2="436.048" y2="492.016"></line>
  <path d="M 437.841 487.502 L 389.851 435.263 L 106.215 435.263 C 86.459 435.263 70.444 419.248 70.444 399.492 L 70.444 87.573 L 20.742 33.47 L 43.572 12.498 L 460.671 466.53 L 437.841 487.502 Z M 213.529 404.602 L 361.684 404.602 L 213.529 243.328 L 213.529 404.602 Z M 106.215 26.449 L 443.487 26.449 C 463.232 26.449 479.258 42.475 479.258 62.22 L 479.258 399.492 C 479.258 410.848 473.966 420.968 465.715 427.521 L 444.557 404.49 C 446.865 403.998 448.597 401.947 448.597 399.492 L 448.597 169.534 L 228.714 169.534 L 98.115 27.371 C 100.718 26.768 103.429 26.449 106.215 26.449 Z M 101.105 169.534 L 101.105 399.492 C 101.105 402.313 103.395 404.602 106.215 404.602 L 182.868 404.602 L 182.868 209.952 L 145.738 169.534 L 101.105 169.534 Z" style=""></path>
  <line style="fill: rgb(216, 216, 216); stroke-width: 31px;" x1="41.111" y1="17.609" x2="458.21" y2="471.641"></line>
  <path d="M 52.526 7.123 C 52.526 7.123 469.625 461.155 469.625 461.155 L 446.795 482.127 L 29.696 28.095 Z" style="fill: none;"></path>
</svg>