<svg viewBox="0 0 500 500" xmlns="http://www.w3.org/2000/svg">
    <defs></defs>
    <g transform="matrix(0.171289, 0, 0, -0.171289, -58.320312, 530.83197)" fill="#000000" stroke="none" style="">
    <path d="M1338 2869 l-458 -229 0 -196 0 -196 -42 6 c-24 3 -118 8 -211 12
l-167 7 0 -792 c0 -435 0 -794 0 -798 0 -5 95 -13 212 -20 291 -15 483 -47
639 -106 198 -75 337 -177 444 -326 20 -28 40 -51 44 -51 4 0 25 25 46 55 51
75 169 183 253 233 177 105 436 173 712 188 63 3 124 8 135 9 11 2 59 4 108 4
l87 1 0 801 0 802 -172 -7 c-95 -4 -190 -9 -210 -12 l-38 -6 0 175 0 175 -142
77 c-228 125 -627 344 -701 386 -38 22 -72 39 -75 38 -4 0 -213 -103 -464
-230z m937 -174 l310 -170 0 -145 0 -144 -112 -22 c-258 -52 -468 -154 -616
-299 l-57 -57 -79 74 c-157 145 -374 242 -661 295 l-45 9 0 163 0 162 390 199
390 198 85 -46 c47 -25 225 -123 395 -217z m-1413 -571 c17 -5 18 -37 20 -432
l3 -427 50 -7 c416 -65 648 -181 813 -405 25 -35 48 -63 51 -63 3 0 24 26 46
56 59 83 173 187 262 239 136 79 279 125 508 164 l100 17 3 427 2 427 23 5
c12 3 78 6 147 7 l125 3 0 -670 0 -670 -130 -7 c-492 -25 -799 -128 -1022
-341 l-63 -60 -62 59 c-231 220 -566 326 -1093 347 l-60 2 -3 660 c-1 363 0
666 3 674 4 11 29 12 133 7 70 -4 135 -9 144 -12z m310 -53 c149 -37 253 -82
358 -152 87 -58 188 -156 237 -230 14 -21 28 -39 32 -39 3 0 17 17 31 38 39
59 150 170 215 217 33 23 92 59 132 79 83 41 280 103 359 112 l54 7 -2 -364
-3 -364 -107 -22 c-265 -55 -471 -154 -620 -299 l-58 -57 -63 60 c-151 144
-353 242 -614 296 l-108 22 -3 363 -2 362 24 0 c13 0 75 -13 138 -29z"></path>
    </g>
    <style>
    @media (prefers-color-scheme: dark) {
        g {
            filter: invert(1)
        }
    }
    </style>
</svg>